<?xml version="1.0" encoding="UTF-8" standalone="no"?>
<!-- Created with Inkscape (http://www.inkscape.org/) -->

<svg
   width="32"
   height="32"
   viewBox="0 0 8.4666666 8.4666666"
   version="1.1"
   id="svg8"
   inkscape:version="1.1.1 (3bf5ae0d25, 2021-09-20)"
   sodipodi:docname="ramses_install_icon.svg"
   inkscape:export-filename="D:\RxLab\src\RxOT\Ramses\Ramses-Installer\config\ramses_install.png"
   inkscape:export-xdpi="384"
   inkscape:export-ydpi="384"
   xmlns:inkscape="http://www.inkscape.org/namespaces/inkscape"
   xmlns:sodipodi="http://sodipodi.sourceforge.net/DTD/sodipodi-0.dtd"
   xmlns="http://www.w3.org/2000/svg"
   xmlns:svg="http://www.w3.org/2000/svg"
   xmlns:rdf="http://www.w3.org/1999/02/22-rdf-syntax-ns#"
   xmlns:cc="http://creativecommons.org/ns#"
   xmlns:dc="http://purl.org/dc/elements/1.1/">
  <defs
     id="defs2">
    <style
       id="style1399">.cls-1{fill:#e3e3e3;}</style>
    <style
       id="style1399-4">.cls-1{fill:#e3e3e3;}</style>
    <style
       id="style1399-8">.cls-1{fill:#e3e3e3;}</style>
    <style
       id="style1399-4-5">.cls-1{fill:#e3e3e3;}</style>
    <style
       id="style1399-0">.cls-1{fill:#e3e3e3;}</style>
    <style
       id="style854">.cls-1{fill:#e3e3e3;}</style>
    <style
       id="style1399-84">.cls-1{fill:#e3e3e3;}</style>
    <style
       id="style1399-4-8">.cls-1{fill:#e3e3e3;}</style>
    <style
       id="style1399-8-10">.cls-1{fill:#e3e3e3;}</style>
    <style
       id="style1399-4-5-3">.cls-1{fill:#e3e3e3;}</style>
    <style
       id="style1399-0-0">.cls-1{fill:#e3e3e3;}</style>
    <style
       id="style1399-5">.cls-1{fill:#e3e3e3;}</style>
    <style
       id="style1399-4-6">.cls-1{fill:#e3e3e3;}</style>
    <style
       id="style1399-8-1">.cls-1{fill:#e3e3e3;}</style>
    <style
       id="style1399-4-5-1">.cls-1{fill:#e3e3e3;}</style>
    <style
       id="style1399-0-5">.cls-1{fill:#e3e3e3;}</style>
    <style
       id="style2">.a{filter:url(#a);}.b{fill:#710132;}.c{fill:#e3e3e3;}</style>
    <filter
       name="AI_FlouGaussien_4"
       id="a">
      <feGaussianBlur
         id="feGaussianBlur4"
         stdDeviation="4" />
    </filter>
    <style
       id="style2-1">.a{filter:url(#a);}.b{fill:#710132;}.c{fill:#e3e3e3;}</style>
    <filter
       name="AI_FlouGaussien_4"
       id="a-3">
      <feGaussianBlur
         id="feGaussianBlur4-3"
         stdDeviation="4" />
    </filter>
    <style
       id="style2-4">.a{filter:url(#a);}.b{fill:#710132;}.c{fill:#e3e3e3;}</style>
    <filter
       name="AI_FlouGaussien_4"
       id="a-6">
      <feGaussianBlur
         id="feGaussianBlur4-4"
         stdDeviation="4" />
    </filter>
    <style
       id="style2-5">.a{filter:url(#a);}.b{fill:#710132;}.c{fill:#e3e3e3;}</style>
    <filter
       name="AI_FlouGaussien_4"
       id="a-9">
      <feGaussianBlur
         id="feGaussianBlur4-5"
         stdDeviation="4" />
    </filter>
    <style
       id="style2-1-7">.a{filter:url(#a);}.b{fill:#710132;}.c{fill:#e3e3e3;}</style>
    <filter
       name="AI_FlouGaussien_4"
       id="a-3-2">
      <feGaussianBlur
         id="feGaussianBlur4-3-9"
         stdDeviation="4" />
    </filter>
  </defs>
  <sodipodi:namedview
     id="base"
     pagecolor="#ffffff"
     bordercolor="#666666"
     borderopacity="1.0"
     inkscape:pageopacity="0.0"
     inkscape:pageshadow="2"
     inkscape:zoom="11.313708"
     inkscape:cx="16.572816"
     inkscape:cy="21.964505"
     inkscape:document-units="mm"
     inkscape:current-layer="svg8"
     showgrid="false"
     units="px"
     inkscape:window-width="1282"
     inkscape:window-height="1081"
     inkscape:window-x="689"
     inkscape:window-y="152"
     inkscape:window-maximized="0"
     inkscape:snap-bbox="true"
     inkscape:bbox-paths="true"
     inkscape:bbox-nodes="true"
     inkscape:snap-bbox-edge-midpoints="true"
     inkscape:snap-bbox-midpoints="true"
     inkscape:snap-nodes="true"
     inkscape:snap-others="true"
     inkscape:snap-object-midpoints="true"
     inkscape:snap-page="true"
     inkscape:pagecheckerboard="0">
    <sodipodi:guide
       position="8.4666666,0"
       orientation="-32,0"
       id="guide854"
       inkscape:locked="false" />
    <sodipodi:guide
       position="8.4666666,8.4666666"
       orientation="0,-32"
       id="guide856"
       inkscape:locked="false" />
    <sodipodi:guide
       position="0,8.4666814"
       orientation="32,0"
       id="guide858"
       inkscape:locked="false" />
  </sodipodi:namedview>
  <metadata
     id="metadata5">
    <rdf:RDF>
      <cc:Work
         rdf:about="">
        <dc:format>image/svg+xml</dc:format>
        <dc:type
           rdf:resource="http://purl.org/dc/dcmitype/StillImage" />
      </cc:Work>
    </rdf:RDF>
  </metadata>
  <path
     sodipodi:type="star"
     style="fill:#e3e3e3;fill-opacity:1;stroke:#a526c4;stroke-width:21.2455;stroke-linejoin:round;stroke-miterlimit:4;stroke-dasharray:none;stroke-opacity:1"
     id="path845"
     inkscape:flatsided="true"
     sodipodi:sides="6"
     sodipodi:cx="-85.862968"
     sodipodi:cy="16.162441"
     sodipodi:r1="260.73874"
     sodipodi:r2="225.80638"
     sodipodi:arg1="1.0471976"
     sodipodi:arg2="1.5707963"
     inkscape:rounded="0"
     inkscape:randomized="0"
     d="m 44.50639,241.96882 -260.73874,-1e-5 -130.36936,-225.806381 130.36938,-225.806369 260.738742,2e-5 130.369358,225.806374 z"
     transform="matrix(0.01007437,0,0,0.01007437,5.4123075,2.9674036)" />
  <path
     sodipodi:nodetypes="saascccsscsccssssscccsccccc"
     inkscape:connector-curvature="0"
     id="circle15-1"
     d="m 2.0318275,2.8062564 c -0.152804,0.2643114 -0.1433017,0.3494009 -0.091934,0.5165907 0.064261,0.2091612 0.2747975,0.3506332 0.4580406,0.4702135 0.2958216,0.1930492 0.6306753,0.2557852 0.9925801,0.3712053 0.1285928,0.041011 0.3479067,0.6574637 0.036866,1.2450752 0.632952,0.050995 0.8987554,0.024293 1.3548697,0.044765 -0.054091,-0.8451789 0.3634592,-0.7972972 0.5271125,-0.7657882 0.1650792,0.053611 0.4582305,0.053554 0.5236305,-0.1011847 0.065405,-0.1547289 -0.075681,-0.2796744 -0.078319,-0.3505005 -0.00795,-0.2127992 0.074645,-0.3290788 0.085063,-0.345717 0.010423,-0.0165 0.064325,-0.045721 0.066928,-0.1003308 0.00428,-0.089604 -0.083445,-0.1344179 -0.083445,-0.1344179 0.032127,-0.051109 0.1351715,-0.081708 0.1040322,-0.1873053 0,0 -0.1545019,-0.2349375 -0.1385738,-0.3762772 C 5.8046034,2.9512384 6.0983373,2.9703491 6.0390244,2.8228033 5.8358759,2.3174417 5.5146469,2.1734734 5.376566,2.1188533 5.2384863,2.064243 5.1987968,1.875366 5.173676,1.7838966 5.1485603,1.6924601 5.0423567,1.6148346 4.9582345,1.5472926 4.8741125,1.4797445 4.7736216,1.2659734 4.6063088,1.1525549 4.3521467,0.99554328 4.0132638,0.85145 3.6997686,0.86122231 3.386272,0.8708887 3.2102377,0.90181552 2.9376677,1.3245783 2.6973116,1.7258659 2.4326419,2.1129506 2.0318275,2.8062564 Z M 4.8930049,2.018737 c 0,0 0.2430356,0.1405902 0.2178599,0.4140152 0,0 -0.1983581,0.1087416 -0.5899583,0.022056 0.075469,-0.239909 0.3721003,-0.4360424 0.3721003,-0.4360424 z"
     style="display:inline;fill:#a526c4;fill-opacity:1;stroke-width:0.0123925" />
  <path
     style="fill:#a526c4;stroke-width:0.007;stroke:none;stroke-opacity:1;stroke-miterlimit:4;stroke-dasharray:none;fill-opacity:1"
     inkscape:connector-curvature="0"
     d="m 5.1633388,7.6444164 c -0.1202741,0 -0.2334318,-0.064052 -0.2946365,-0.1665337 L 4.4110904,6.719229 3.9541902,7.4778827 c -0.061916,0.103194 -0.1750739,0.1672454 -0.2953484,0.1672454 -0.032025,0 -0.064052,-0.00427 -0.094654,-0.013522 L 2.5891829,7.3526266 v 0.4950542 c 0,0.1046172 0.071168,0.1957126 0.1722272,0.2206216 L 4.300068,8.4533227 c 0.072592,0.017792 0.1487416,0.017792 0.2206215,0 L 6.0607707,8.0683024 C 6.1618297,8.0426817 6.232998,7.9515866 6.232998,7.8476808 V 7.3526266 L 5.2579926,7.6308945 c -0.030603,0.00925 -0.062628,0.013522 -0.094654,0.013522 z M 6.6763763,6.8459085 6.3098596,6.1142987 c -0.022062,-0.044124 -0.069745,-0.069745 -0.1188509,-0.06334 l -1.7799183,0.2270268 0.652613,1.0824694 c 0.027043,0.044835 0.081132,0.066187 0.1316613,0.051953 L 6.6037845,7.0103069 C 6.6742405,6.9896679 6.708402,6.9113829 6.6763763,6.8459085 Z M 2.5123212,6.1142987 2.1458046,6.8459085 c -0.032737,0.065475 0.00213,0.1437599 0.07188,0.163687 l 1.40842,0.4021006 c 0.05053,0.014234 0.1046172,-0.00712 0.1316613,-0.051953 L 4.4110904,6.2779857 2.6304604,6.0509589 c -0.049106,-0.0057 -0.096077,0.019216 -0.1181392,0.06334 z"
     id="path1095"
     sodipodi:nodetypes="scccsccsccccsccscccccccccccccccc" />
</svg>
